<svg width="42" height="42" viewBox="0 0 42 42" fill="none" xmlns="http://www.w3.org/2000/svg">
<path fill-rule="evenodd" clip-rule="evenodd" d="M16.3636 7.40569C19.1408 6.89634 22.0079 7.46206 24.3835 8.98818C26.3668 10.2623 27.8836 12.1262 28.7328 14.3C29.7024 14.2039 30.6831 14.2463 31.6452 14.4279C33.0675 14.6963 34.4168 15.263 35.6043 16.0905C36.7917 16.918 37.7905 17.9876 38.5348 19.2289C39.2792 20.4702 39.7521 21.8551 39.9227 23.2924C40.0932 24.7297 39.9574 26.1869 39.5242 27.5679C39.0909 28.9489 38.3702 30.2225 37.4093 31.3049C36.4484 32.3873 35.2691 33.2539 33.9491 33.8477C32.6292 34.4415 31.1984 34.749 29.751 34.75H10.5L10.496 34.75C8.42376 34.7445 6.42482 33.9825 4.87476 32.6071C3.32471 31.2318 2.33023 29.3377 2.07817 27.2808C1.82612 25.2239 2.33383 23.1458 3.50593 21.4369C4.43841 20.0773 5.74031 19.0258 7.24555 18.3981C7.23478 16.0097 7.9937 13.6687 9.42728 11.7312C11.1067 9.46135 13.5864 7.91504 16.3636 7.40569ZM7.79258 21.4655C7.07558 21.8744 6.454 22.4425 5.97995 23.1337C5.22136 24.2397 4.89277 25.5847 5.0559 26.9159C5.21903 28.2472 5.86266 29.473 6.86586 30.3631C7.86856 31.2528 9.16149 31.746 10.5019 31.75H29.749C30.7727 31.7493 31.7847 31.5318 32.7184 31.1118C33.652 30.6918 34.4861 30.0788 35.1658 29.3132C35.8454 28.5476 36.3553 27.6468 36.6617 26.67C36.9681 25.6931 37.0642 24.6625 36.9436 23.6459C36.8229 22.6292 36.4884 21.6497 35.9619 20.7717C35.4355 19.8937 34.729 19.1371 33.8891 18.5518C33.0491 17.9665 32.0948 17.5657 31.0888 17.3758C30.0899 17.1873 29.0625 17.2109 28.0735 17.4451L25.7689 18.0723C24.9696 18.2899 24.1452 17.8183 23.9277 17.0189C23.7101 16.2196 24.1817 15.3952 24.9811 15.1777L25.7582 14.9661C25.1149 13.561 24.0793 12.3585 22.762 11.5122C21.027 10.3976 18.9331 9.98448 16.9048 10.3565C14.8765 10.7285 13.0655 11.8578 11.8389 13.5155C10.6219 15.1604 10.0706 17.2035 10.2942 19.2362L10.2954 19.243C10.3021 19.2778 10.3126 19.3314 10.3271 19.3995C10.3563 19.5367 10.4003 19.7282 10.4587 19.942C10.5858 20.4066 10.7439 20.8354 10.8964 21.0791C11.336 21.7813 11.1231 22.7069 10.4209 23.1464C9.71872 23.586 8.79314 23.3731 8.35357 22.6709C8.11743 22.2937 7.93325 21.8632 7.79258 21.4655Z" fill="#9969FF"/>
</svg>
